<svg width="21" height="20" viewBox="0 0 21 20" fill="none" xmlns="http://www.w3.org/2000/svg">
<path fill-rule="evenodd" clip-rule="evenodd" d="M9.86899 1.75003C5.39532 1.75003 1.75 5.43327 1.75 10C1.75 14.5668 5.39532 18.25 9.86899 18.25C12.6783 18.25 15.1585 16.8003 16.6184 14.5871C16.8465 14.2413 17.3117 14.1459 17.6575 14.374C18.0032 14.602 18.0986 15.0672 17.8706 15.413C16.1484 18.0237 13.2097 19.75 9.86899 19.75C4.54624 19.75 0.25 15.3744 0.25 10C0.25 4.62566 4.54624 0.250031 9.86899 0.250031C13.2097 0.250031 16.1484 1.97632 17.8706 4.58706C18.0986 4.93282 18.0032 5.39801 17.6575 5.62609C17.3117 5.85417 16.8465 5.75877 16.6184 5.413C15.1585 3.1998 12.6783 1.75003 9.86899 1.75003ZM14.2547 13.5026C14.2547 13.5578 14.2099 13.6026 14.1547 13.6026H9.48164C9.42641 13.6026 9.38164 13.5578 9.38164 13.5026V12.7149C9.38164 12.6641 9.401 12.6151 9.43579 12.5781L11.6814 10.1846C11.9972 9.83955 12.2299 9.53844 12.3797 9.28128C12.5327 9.02412 12.6092 8.77998 12.6092 8.54886C12.6092 8.2331 12.5294 7.98571 12.3699 7.80667C12.2104 7.62438 11.9826 7.53323 11.6863 7.53323C11.3673 7.53323 11.115 7.64391 10.9295 7.86526C10.7645 8.06268 10.6742 8.31745 10.6585 8.62956C10.6557 8.68472 10.6113 8.72952 10.5561 8.72952H9.34004C9.28481 8.72952 9.23983 8.68471 9.24189 8.62952C9.25655 8.23549 9.35847 7.87332 9.54766 7.543C9.75599 7.18493 10.049 6.90498 10.4266 6.70316C10.8042 6.49808 11.2322 6.39554 11.7107 6.39554C12.4432 6.39554 13.0112 6.57132 13.4148 6.92288C13.8217 7.27444 14.0252 7.77086 14.0252 8.41214C14.0252 8.7637 13.934 9.12178 13.7518 9.48636C13.5695 9.85094 13.257 10.2757 12.8143 10.7608L11.198 12.4649H14.1547C14.2099 12.4649 14.2547 12.5096 14.2547 12.5649V13.5026ZM7.86719 13.5026C7.86719 13.5578 7.82242 13.6026 7.76719 13.6026H6.55605C6.50083 13.6026 6.45605 13.5578 6.45605 13.5026V8.16312L4.90111 8.64538C4.83676 8.66533 4.77148 8.61724 4.77148 8.54986V7.60852C4.77148 7.56629 4.79801 7.52862 4.83776 7.51438L7.69947 6.48929C7.71029 6.48541 7.7217 6.48343 7.73319 6.48343H7.81719C7.8448 6.48343 7.86719 6.50582 7.86719 6.53343V13.5026ZM19.8628 9.40921H18.7373V8.17142C18.7373 7.80062 18.4367 7.50003 18.0659 7.50003C17.6951 7.50003 17.3945 7.80062 17.3945 8.17142V9.40921H16.2642C15.9122 9.40921 15.627 9.6945 15.627 10.0464C15.627 10.3983 15.9122 10.6836 16.2642 10.6836H17.3945V12.0044C17.3945 12.3752 17.6951 12.6758 18.0659 12.6758C18.4367 12.6758 18.7373 12.3752 18.7373 12.0044V10.6836H19.8628C20.2147 10.6836 20.5 10.3983 20.5 10.0464C20.5 9.6945 20.2147 9.40921 19.8628 9.40921Z" fill="white"/>
</svg>
