<svg width="152" height="47" viewBox="0 0 152 47" fill="none" xmlns="http://www.w3.org/2000/svg">
<path d="M1 7C1 3.68629 3.68629 1 7 1H145C148.314 1 151 3.68629 151 7V40C151 43.3137 148.314 46 145 46H7.00001C3.6863 46 1.00001 43.3137 1.00001 40L1 7Z" fill="#001424" stroke="#445361" stroke-width="1.5"/>
<path d="M54.7146 28.6526H58.1729L56.9345 25.3086C56.7644 24.8467 56.5969 24.3366 56.4314 23.7781C56.2821 24.2722 56.12 24.777 55.9445 25.2928L54.7146 28.6526ZM58.7636 30.2398H54.1312L52.9972 33.3661H50.9604L55.4971 21.691H57.4221L62.0624 33.3661H59.922L58.7636 30.2398Z" fill="white"/>
<path d="M68.1692 31.243C68.5712 30.698 68.7723 29.9015 68.7723 28.8541C68.7723 27.8818 68.6061 27.177 68.273 26.739C67.9399 26.3011 67.497 26.0824 66.9432 26.0824C66.5596 26.0824 66.2054 26.1735 65.8808 26.3562C65.5563 26.5388 65.2469 26.7833 64.9545 27.0896V31.7468C65.151 31.8435 65.3802 31.92 65.6411 31.9764C65.902 32.0326 66.1601 32.0608 66.4163 32.0608C67.1831 32.0608 67.767 31.7881 68.1692 31.243ZM62.9816 26.7995C62.9816 26.1547 62.9599 25.446 62.9178 24.6721H64.7707C64.8396 25.0322 64.8874 25.4003 64.9144 25.7763C65.6811 24.9328 66.5596 24.5111 67.5503 24.5111C68.1251 24.5111 68.6581 24.6576 69.1475 24.9502C69.6376 25.243 70.0332 25.7049 70.3341 26.336C70.6349 26.9672 70.7854 27.7692 70.7854 28.741C70.7854 29.7564 70.6132 30.624 70.2696 31.3438C69.9266 32.0635 69.4458 32.6085 68.8282 32.9794C68.2107 33.3499 67.497 33.5355 66.6877 33.5355C66.1017 33.5355 65.5241 33.4358 64.9545 33.2372V36.8307L62.9816 37V26.7995Z" fill="white"/>
<path d="M77.2359 31.243C77.638 30.698 77.839 29.9015 77.839 28.8541C77.839 27.8818 77.6727 27.177 77.3396 26.739C77.0065 26.3011 76.5637 26.0824 76.0099 26.0824C75.6262 26.0824 75.2721 26.1735 74.9474 26.3562C74.623 26.5388 74.3136 26.7833 74.0211 27.0896V31.7468C74.2175 31.8435 74.4468 31.92 74.7077 31.9764C74.9685 32.0326 75.2267 32.0608 75.4829 32.0608C76.2497 32.0608 76.8337 31.7881 77.2359 31.243ZM72.0482 26.7995C72.0482 26.1547 72.0266 25.446 71.9845 24.6721H73.8371C73.9062 25.0322 73.9541 25.4003 73.9811 25.7763C74.7478 24.9328 75.6262 24.5111 76.6171 24.5111C77.1919 24.5111 77.7245 24.6576 78.214 24.9502C78.7042 25.243 79.0997 25.7049 79.4006 26.336C79.7015 26.9672 79.8519 27.7692 79.8519 28.741C79.8519 29.7564 79.6798 30.624 79.3362 31.3438C78.9932 32.0635 78.5124 32.6085 77.8947 32.9794C77.2773 33.3499 76.5637 33.5355 75.7543 33.5355C75.1683 33.5355 74.5908 33.4358 74.0211 33.2372V36.8307L72.0482 37V26.7995Z" fill="white"/>
<path d="M83.5738 32.814C82.7216 32.3388 82.0666 31.6579 81.6086 30.7719C81.1507 29.8853 80.9221 28.8379 80.9221 27.6294C80.9221 26.3187 81.1855 25.2053 81.7127 24.2894C82.2401 23.3738 82.9575 22.6862 83.8655 22.227C84.7728 21.7676 85.7911 21.538 86.9204 21.538C87.5861 21.538 88.2208 21.6118 88.8252 21.7597C89.4297 21.9074 89.9926 22.1099 90.515 22.3677L90.0118 23.8987C88.9624 23.394 87.9612 23.1415 87.0086 23.1415C86.2044 23.1415 85.5001 23.3145 84.8957 23.661C84.2912 24.0073 83.8215 24.5164 83.4857 25.188C83.1507 25.8594 82.9825 26.6702 82.9825 27.6213C82.9825 28.4538 83.112 29.1925 83.37 29.837C83.6284 30.4815 84.0356 30.9922 84.5921 31.3679C85.1486 31.744 85.8503 31.932 86.6965 31.932C87.0802 31.932 87.4638 31.8999 87.8469 31.8351C88.2305 31.7708 88.5899 31.6767 88.925 31.5531V29.1925H86.2498V27.6455H90.8422V32.5605C90.1819 32.872 89.4881 33.1109 88.7614 33.2777C88.0348 33.4441 87.3121 33.5271 86.5926 33.5271C85.4318 33.5271 84.426 33.2896 83.5738 32.814Z" fill="white"/>
<path d="M96.7688 31.7545C97.1788 31.5561 97.5146 31.3089 97.7753 31.0133V29.4019C97.2372 29.343 96.7983 29.3133 96.4575 29.3133C95.6428 29.3133 95.0797 29.4462 94.7683 29.7121C94.4568 29.9779 94.3011 30.3366 94.3011 30.7876C94.3011 31.2174 94.4141 31.5358 94.6402 31.7426C94.8668 31.9493 95.1744 32.0529 95.5626 32.0529C95.9567 32.0529 96.3589 31.9534 96.7688 31.7545ZM97.9507 33.3661C97.8818 33.0277 97.8365 32.6437 97.8154 32.2137C97.5118 32.5794 97.1163 32.8896 96.6288 33.1442C96.1421 33.3995 95.5922 33.527 94.9799 33.527C94.4844 33.527 94.0331 33.429 93.6258 33.2332C93.2184 33.037 92.8952 32.7417 92.6553 32.3468C92.4156 31.952 92.296 31.47 92.296 30.9005C92.296 30.0573 92.5969 29.3846 93.1988 28.8821C93.8005 28.3797 94.8037 28.1287 96.2096 28.1287C96.7374 28.1287 97.2589 28.1664 97.7753 28.2416V28.0723C97.7753 27.3041 97.613 26.763 97.2879 26.4489C96.9633 26.1349 96.4974 25.9775 95.8903 25.9775C95.47 25.9775 95.0199 26.0392 94.5403 26.1629C94.0614 26.2866 93.6402 26.434 93.2782 26.606L92.9668 25.1554C93.3184 24.9946 93.7815 24.8466 94.357 24.7124C94.9318 24.5784 95.5389 24.5111 96.1781 24.5111C96.9231 24.5111 97.5571 24.6253 98.0789 24.8536C98.6006 25.082 99.0079 25.474 99.3008 26.0297C99.5939 26.5857 99.7405 27.3341 99.7405 28.2739V31.7305C99.7405 32.0902 99.7614 32.6356 99.8041 33.3661H97.9507Z" fill="white"/>
<path d="M101.466 31.279V21.006L103.431 20.8449V30.925C103.431 31.2954 103.493 31.5571 103.619 31.7102C103.743 31.8632 103.942 31.9399 104.214 31.9399C104.336 31.9399 104.51 31.9102 104.733 31.8513L104.965 33.2776C104.778 33.3528 104.55 33.4132 104.282 33.4589C104.013 33.5044 103.759 33.527 103.519 33.527C102.15 33.527 101.466 32.7779 101.466 31.279Z" fill="white"/>
<path d="M106.379 31.279V21.006L108.343 20.8449V30.925C108.343 31.2954 108.405 31.5571 108.531 31.7102C108.656 31.8632 108.854 31.9399 109.126 31.9399C109.248 31.9399 109.422 31.9102 109.645 31.8513L109.877 33.2776C109.691 33.3528 109.463 33.4132 109.194 33.4589C108.925 33.5044 108.671 33.527 108.431 33.527C107.062 33.527 106.379 32.7779 106.379 31.279Z" fill="white"/>
<path d="M116.131 28.0081C116.094 27.3151 115.921 26.7952 115.612 26.4489C115.303 26.1024 114.891 25.9293 114.374 25.9293C113.874 25.9293 113.457 26.1037 113.124 26.453C112.792 26.8022 112.574 27.3205 112.473 28.0081H116.131ZM118.056 29.2728H112.417C112.508 31.0937 113.368 32.0044 114.997 32.0044C115.402 32.0044 115.816 31.9549 116.239 31.8554C116.663 31.756 117.069 31.6231 117.457 31.4564L117.888 32.8184C116.925 33.2909 115.841 33.5272 114.638 33.5272C113.722 33.5272 112.95 33.3528 112.321 33.0036C111.693 32.6543 111.221 32.1523 110.903 31.4967C110.587 30.8418 110.428 30.0519 110.428 29.1278C110.428 28.1664 110.596 27.3393 110.932 26.6464C111.267 25.9531 111.735 25.4243 112.334 25.0592C112.932 24.6935 113.623 24.5111 114.406 24.5111C115.221 24.5111 115.901 24.7032 116.447 25.0874C116.992 25.4714 117.397 25.983 117.661 26.6223C117.925 27.2614 118.056 27.9677 118.056 28.7411V29.2728Z" fill="white"/>
<path d="M119.646 26.8558C119.646 26.3776 119.624 25.6501 119.582 24.6721H121.427C121.459 24.9139 121.489 25.2028 121.519 25.5383C121.548 25.8744 121.568 26.1467 121.579 26.3562C121.807 25.9749 122.033 25.6539 122.253 25.3936C122.474 25.1331 122.733 24.9206 123.029 24.757C123.324 24.593 123.661 24.5111 124.038 24.5111C124.342 24.5111 124.603 24.5432 124.822 24.6078L124.574 26.332C124.382 26.2729 124.169 26.2435 123.935 26.2435C123.472 26.2435 123.067 26.3632 122.721 26.602C122.374 26.841 122.004 27.2348 121.611 27.7825V33.3661H119.646V26.8558Z" fill="white"/>
<path d="M126.005 36.9235C125.717 36.8725 125.481 36.8147 125.294 36.7501L125.654 35.3C125.786 35.3374 125.955 35.3735 126.157 35.4088C126.359 35.4435 126.551 35.4611 126.732 35.4611C127.605 35.4611 128.26 34.8941 128.697 33.7607L128.824 33.4386L125.646 24.6721H127.762L129.36 29.5711C129.62 30.4091 129.788 31.0511 129.863 31.4967C130.012 30.8682 130.187 30.2398 130.39 29.6111L132.011 24.6721H134L130.829 33.4788C130.531 34.3116 130.209 34.9828 129.863 35.4932C129.517 36.0034 129.108 36.3822 128.637 36.6292C128.165 36.8763 127.597 36.9999 126.931 36.9999C126.601 36.9999 126.293 36.9744 126.005 36.9235Z" fill="white"/>
<path fill-rule="evenodd" clip-rule="evenodd" d="M36.3089 10.2854H25.1679C19.9197 10.2854 18 12.2219 18 17.516V28.7548C18 34.0488 19.9197 35.9853 25.1678 35.9853H36.3055C41.5537 35.9853 43.4768 34.0488 43.4768 28.7548V17.516C43.4768 12.2219 41.5572 10.2854 36.3089 10.2854Z" fill="white"/>
<path d="M29.1149 25.1903H30.1367L29.6241 23.9879L29.1149 25.1903ZM28.8634 25.796L28.5603 26.4956H27.8704L29.3376 23.1375H29.934L31.3955 26.4956H30.6869L30.3878 25.796H28.8634ZM39.9668 26.4934H40.6336V23.1377H39.9668V26.4934ZM37.3124 25.0516H38.5416V24.4398H37.3124V23.7521H39.0968V23.1396H36.6457V26.4954H39.1611V25.8834H37.3124V25.0516ZM34.6626 25.4481L33.9065 23.1374H33.3549L32.5987 25.4481L31.8628 23.139H31.1435L32.3045 26.4975H32.864L33.6214 24.2915L34.3785 26.4975H34.9428L36.1009 23.139H35.4003L34.6626 25.4481ZM26.8521 25.0609C26.8521 25.6071 26.5833 25.8991 26.0949 25.8991C25.6041 25.8991 25.3336 25.5988 25.3336 25.0375V23.1394H24.6577V25.0609C24.6577 26.0058 25.1784 26.5479 26.0858 26.5479C27.0023 26.5479 27.5277 25.9957 27.5277 25.0329V23.1375H26.8521V25.0609ZM23.0452 23.1375H23.7208V26.4977H23.0452V25.1331H21.5192V26.4977H20.8433V23.1375H21.5192V24.4931H23.0452V23.1375Z" fill="#001424"/>
<path d="M30.7383 18.8595C28.4 18.8595 26.4976 16.9404 26.4976 14.5816H27.0967C27.0967 16.6071 28.7304 18.2551 30.7383 18.2551C32.7464 18.2551 34.3799 16.6071 34.3799 14.5816H34.9791C34.9791 16.9404 33.0766 18.8595 30.7383 18.8595Z" fill="#001424"/>
<path d="M54.6039 16.5503C54.8799 16.3635 55.0862 16.1063 55.2227 15.7788C55.3595 15.4515 55.4278 15.077 55.4278 14.6556C55.4278 14.242 55.3673 13.8735 55.2464 13.5501C55.1256 13.2266 54.9325 12.9688 54.667 12.7766C54.4016 12.5845 54.06 12.4884 53.6421 12.4884C53.2426 12.4884 52.9036 12.5858 52.6251 12.7805C52.3464 12.9755 52.1377 13.2366 51.9983 13.5641C51.859 13.8914 51.7893 14.2526 51.7893 14.6475C51.7893 15.0639 51.8551 15.4363 51.9865 15.765C52.1179 16.0938 52.3188 16.3535 52.5896 16.5443C52.8602 16.7353 53.1954 16.8308 53.5947 16.8308C53.9916 16.8308 54.328 16.7373 54.6039 16.5503ZM52.0496 17.2563C51.6317 17.0149 51.3124 16.6762 51.0916 16.2403C50.8709 15.8042 50.7605 15.2971 50.7605 14.7193C50.7605 14.1121 50.8781 13.5812 51.1134 13.1265C51.3485 12.6719 51.6875 12.3207 52.1303 12.0729C52.5731 11.8249 53.0955 11.7009 53.6972 11.7009C54.2729 11.7009 54.7681 11.8209 55.1833 12.0608C55.5985 12.3007 55.9153 12.638 56.1334 13.0729C56.3516 13.5077 56.4607 14.0113 56.4607 14.584C56.4607 15.2016 56.3417 15.7384 56.1039 16.1945C55.866 16.6504 55.527 17.0018 55.0868 17.2482C54.6466 17.4947 54.1296 17.6181 53.5357 17.6181C52.9627 17.6181 52.4675 17.4974 52.0496 17.2563Z" fill="white"/>
<path d="M58.4591 12.6116H56.6892L56.7759 11.7805H61.2185L61.1278 12.6116H59.4446V17.5385H58.4591V12.6116Z" fill="white"/>
<path d="M66.5243 17.5385H65.4126L63.7136 15.0015H63.0396V17.5385H62.0541V11.7806H63.0396V14.1584H63.556L64.7387 12.4327C64.912 12.1755 65.0861 11.9893 65.261 11.874C65.4357 11.7586 65.6558 11.701 65.9212 11.701C66.1419 11.701 66.3391 11.7382 66.5125 11.8123L66.3075 12.5877C66.1999 12.5428 66.0972 12.5203 66 12.5203C65.8843 12.5203 65.7853 12.5494 65.7024 12.6077C65.6197 12.666 65.5335 12.76 65.4442 12.89L64.3996 14.401L66.5243 17.5385Z" fill="white"/>
<path d="M69.7488 14.3514C69.959 14.1593 70.0642 13.8882 70.0642 13.5382C70.0642 13.183 69.9571 12.9271 69.7429 12.7709C69.5288 12.6144 69.214 12.5362 68.7988 12.5362H68.2627V14.58C68.5098 14.6198 68.699 14.6397 68.8304 14.6397C69.2324 14.6397 69.5386 14.5436 69.7488 14.3514ZM67.2772 11.7807H68.8147C69.5372 11.7807 70.0906 11.929 70.4742 12.226C70.8579 12.5229 71.0497 12.9523 71.0497 13.5143C71.0497 13.8961 70.9637 14.2295 70.7915 14.5145C70.6194 14.7995 70.3796 15.0181 70.0722 15.1705C69.7647 15.323 69.4112 15.3992 69.0117 15.3992C68.7936 15.3992 68.5439 15.3728 68.2627 15.3197V17.5386H67.2772V11.7807Z" fill="white"/>
<path d="M75.5002 16.5503C75.7762 16.3635 75.9824 16.1063 76.119 15.7788C76.2557 15.4515 76.3242 15.077 76.3242 14.6556C76.3242 14.242 76.2636 13.8735 76.1427 13.5501C76.0218 13.2266 75.8286 12.9688 75.5633 12.7766C75.2978 12.5845 74.9563 12.4884 74.5384 12.4884C74.1389 12.4884 73.7998 12.5858 73.5213 12.7805C73.2427 12.9755 73.0339 13.2366 72.8945 13.5641C72.7553 13.8914 72.6856 14.2526 72.6856 14.6475C72.6856 15.0639 72.7513 15.4363 72.8827 15.765C73.0141 16.0938 73.2151 16.3535 73.4858 16.5443C73.7565 16.7353 74.0916 16.8308 74.491 16.8308C74.8878 16.8308 75.2242 16.7373 75.5002 16.5503ZM72.9458 17.2563C72.528 17.0149 72.2087 16.6762 71.9878 16.2403C71.7671 15.8042 71.6567 15.2971 71.6567 14.7193C71.6567 14.1121 71.7743 13.5812 72.0096 13.1265C72.2448 12.6719 72.5837 12.3207 73.0265 12.0729C73.4694 11.8249 73.9918 11.7009 74.5935 11.7009C75.1691 11.7009 75.6644 11.8209 76.0796 12.0608C76.4948 12.3007 76.8116 12.638 77.0298 13.0729C77.2477 13.5077 77.3569 14.0113 77.3569 14.584C77.3569 15.2016 77.2379 15.7384 77.0001 16.1945C76.7623 16.6504 76.4232 17.0018 75.983 17.2482C75.5429 17.4947 75.0258 17.6181 74.4319 17.6181C73.859 17.6181 73.3636 17.4974 72.9458 17.2563Z" fill="white"/>
<path d="M80.1517 11.2795C79.9442 11.1682 79.7858 11.025 79.6769 10.8501C79.5676 10.6751 79.4987 10.4868 79.4698 10.2854H80.1793C80.2555 10.7094 80.5026 10.9216 80.9204 10.9216C81.3383 10.9216 81.5866 10.7094 81.6656 10.2854H82.3789C82.35 10.4868 82.281 10.6751 82.172 10.8501C82.0629 11.025 81.9039 11.1682 81.695 11.2795C81.4862 11.3908 81.2278 11.4466 80.9204 11.4466C80.6156 11.4466 80.3594 11.3908 80.1517 11.2795ZM82.375 17.5385V14.3733C82.375 13.9755 82.3894 13.5196 82.4183 13.0053L79.5527 17.5385H78.4567V11.7805H79.3712V15.0691C79.3712 15.427 79.3594 15.8181 79.3357 16.2422L82.1582 11.7805H83.2895V17.5385H82.375Z" fill="white"/>
<path d="M85.8952 12.6116H84.1252L84.2119 11.7805H88.6545L88.5639 12.6116H86.8807V17.5385H85.8952V12.6116Z" fill="white"/>
<path d="M89.4901 11.7805H92.8527L92.7581 12.5997H90.4756V14.1863H92.6279V14.9538H90.4756V16.7114H92.8804L92.7975 17.5385H89.4901V11.7805Z" fill="white"/>
<path d="M99.1263 16.5544C99.3272 16.3888 99.4278 16.1547 99.4278 15.8526C99.4278 15.5318 99.3168 15.2879 99.0947 15.1208C98.8728 14.9539 98.5528 14.8703 98.135 14.8703H97.4727V16.8029H98.2138C98.621 16.8029 98.9253 16.72 99.1263 16.5544ZM97.4727 14.1348H98.0875C98.2924 14.1348 98.4732 14.0936 98.6296 14.0114C98.7859 13.9292 98.9062 13.8185 98.9903 13.6793C99.0743 13.5401 99.1165 13.3872 99.1165 13.2201C99.1165 12.9842 99.0316 12.8079 98.8621 12.6912C98.6925 12.5745 98.4477 12.5162 98.127 12.5162H97.4727V14.1348ZM99.7531 14.6934C99.9567 14.8193 100.117 14.985 100.234 15.1905C100.351 15.3959 100.409 15.6364 100.409 15.9121C100.409 16.2329 100.33 16.5159 100.171 16.7612C100.012 17.0063 99.7793 17.1973 99.4732 17.3338C99.1671 17.4703 98.7998 17.5386 98.3714 17.5386H96.5109V11.7807H98.2924C98.8969 11.7807 99.3503 11.8986 99.6526 12.1344C99.9546 12.3704 100.106 12.6939 100.106 13.1048C100.106 13.4467 100.009 13.7324 99.8162 13.9617C99.6229 14.191 99.3701 14.352 99.0574 14.4448C99.3175 14.4846 99.5493 14.5675 99.7531 14.6934Z" fill="white"/>
</svg>
