<svg width="152" height="47" viewBox="0 0 152 47" fill="none" xmlns="http://www.w3.org/2000/svg">
<path d="M1 7C1 3.68629 3.68629 1 7 1H145C148.314 1 151 3.68629 151 7V40C151 43.3137 148.314 46 145 46H7.00001C3.6863 46 1.00001 43.3137 1.00001 40L1 7Z" fill="#001424" stroke="#445361" stroke-width="1.5"/>
<path d="M34.6662 30.7839C33.7259 32.1609 32.7532 33.5294 31.2175 33.5581C29.7061 33.5868 29.2215 32.6616 27.4969 32.6616C25.7704 32.6616 25.2304 33.5294 23.8033 33.5868C22.3208 33.6423 21.1934 32.0996 20.2454 30.7288C18.3085 27.926 16.8302 22.8039 18.8183 19.3472C19.8029 17.6305 21.567 16.5444 23.4788 16.5157C24.9348 16.4888 26.3102 17.4986 27.1995 17.4986C28.0901 17.4986 29.7596 16.2863 31.5147 16.4641C32.2493 16.4945 34.3112 16.7605 35.6354 18.7008C35.5307 18.7697 33.1743 20.1426 33.203 23.0027C33.2318 26.4193 36.1928 27.555 36.2271 27.5705C36.2003 27.6508 35.7538 29.1917 34.6662 30.7839ZM28.2182 12.7109C29.031 11.7571 30.4044 11.0477 31.5378 11C31.6827 12.3249 31.1504 13.6516 30.3643 14.6076C29.5765 15.5619 28.2871 16.3053 27.0216 16.206C26.8497 14.9098 27.4875 13.558 28.2182 12.7109Z" fill="white"/>
<path d="M46.6519 11.376H48.022C48.2391 11.376 48.4269 11.3433 48.5855 11.2778C48.744 11.2089 48.875 11.1193 48.9784 11.009C49.0818 10.8952 49.1576 10.7694 49.2059 10.6315C49.2576 10.4902 49.2835 10.3472 49.2835 10.2024C49.2835 9.96461 49.2369 9.76298 49.1439 9.59754C49.0508 9.4321 48.9233 9.29768 48.7613 9.19428C48.5993 9.08743 48.4063 9.00988 48.1822 8.96163C47.9616 8.91337 47.7204 8.88925 47.4584 8.88925C47.131 8.88925 46.8415 8.93578 46.5899 9.02884C46.3417 9.11845 46.1332 9.24081 45.9643 9.39591C45.7988 9.54756 45.6748 9.72507 45.592 9.92842C45.5128 10.1318 45.4766 10.3455 45.4835 10.5695H44.527C44.527 10.2455 44.5649 9.956 44.6408 9.70094C44.72 9.44589 44.8286 9.22358 44.9665 9.03401C45.1043 8.84444 45.2663 8.68417 45.4525 8.55319C45.6386 8.42222 45.8402 8.31537 46.0573 8.23265C46.2779 8.14993 46.5089 8.09134 46.7501 8.05687C46.9948 8.01896 47.2413 8 47.4894 8C47.8962 8 48.2667 8.04481 48.601 8.13442C48.9388 8.22059 49.2283 8.35156 49.4696 8.52734C49.7108 8.69968 49.8987 8.91682 50.0331 9.17877C50.1675 9.43727 50.2347 9.73886 50.2347 10.0835C50.2347 10.4764 50.1572 10.8091 50.0021 11.0813C49.8504 11.3502 49.5868 11.5535 49.2111 11.6914V11.7173C49.4075 11.7724 49.5868 11.8534 49.7488 11.9602C49.9142 12.0636 50.0555 12.1946 50.1727 12.3532C50.2933 12.5083 50.3864 12.6927 50.4519 12.9064C50.5208 13.1201 50.5553 13.3648 50.5553 13.6405C50.5553 14.0265 50.4708 14.366 50.3019 14.659C50.1331 14.952 49.9073 15.1967 49.6247 15.3932C49.342 15.5896 49.0129 15.7361 48.6372 15.8326C48.265 15.9326 47.8755 15.9825 47.4688 15.9825C47.0345 15.9825 46.6295 15.9412 46.2538 15.8585C45.8781 15.7792 45.5472 15.6465 45.2612 15.4604C44.9785 15.2742 44.7511 15.0295 44.5787 14.7262C44.4064 14.4195 44.3082 14.0438 44.284 13.5992H45.2818C45.2991 13.8163 45.3491 14.0162 45.4318 14.1989C45.5179 14.3815 45.6437 14.5401 45.8092 14.6745C45.9781 14.8055 46.19 14.9089 46.4451 14.9847C46.7036 15.0571 47.0138 15.0933 47.3757 15.0933C47.7031 15.0933 47.9996 15.0657 48.265 15.0106C48.5338 14.9554 48.7613 14.8675 48.9474 14.7469C49.137 14.6263 49.2817 14.4712 49.3817 14.2816C49.4851 14.0886 49.5368 13.8577 49.5368 13.5888C49.5368 13.3889 49.504 13.2062 49.4386 13.0408C49.3765 12.8753 49.28 12.7323 49.149 12.6117C49.0181 12.491 48.8543 12.398 48.6579 12.3325C48.4614 12.2636 48.2288 12.2291 47.9599 12.2291H46.6519V11.376Z" fill="white"/>
<path d="M51.6668 11.9137C51.6772 11.5759 51.7409 11.2916 51.8581 11.0607C51.9753 10.8263 52.1339 10.6367 52.3338 10.492C52.5337 10.3472 52.7698 10.2438 53.0421 10.1818C53.3178 10.1163 53.6177 10.0835 53.9417 10.0835C54.2105 10.0835 54.4707 10.1111 54.7223 10.1662C54.9774 10.2214 55.2031 10.311 55.3996 10.4351C55.5961 10.5557 55.7529 10.7143 55.8701 10.9107C55.9907 11.1037 56.051 11.3398 56.051 11.619V14.84C56.051 14.9296 56.0752 15.0071 56.1234 15.0726C56.1717 15.1347 56.2492 15.1657 56.3561 15.1657C56.4043 15.1657 56.4543 15.1622 56.506 15.1553C56.5577 15.145 56.6111 15.1347 56.6663 15.1243V15.7809C56.587 15.8016 56.5077 15.8205 56.4284 15.8378C56.3526 15.855 56.2613 15.8636 56.1544 15.8636C55.989 15.8636 55.846 15.8498 55.7253 15.8223C55.6081 15.7947 55.5082 15.7499 55.4255 15.6878C55.3462 15.6224 55.2841 15.5396 55.2393 15.4397C55.1945 15.3363 55.1652 15.2105 55.1514 15.0623C55.0343 15.1898 54.9102 15.3087 54.7792 15.419C54.6482 15.5259 54.5017 15.6206 54.3397 15.7034C54.1778 15.7826 53.9968 15.8447 53.7969 15.8895C53.597 15.9377 53.3712 15.9619 53.1196 15.9619C52.9059 15.9619 52.6974 15.9274 52.494 15.8585C52.2941 15.7895 52.1132 15.6878 51.9512 15.5534C51.7926 15.419 51.6651 15.2536 51.5686 15.0571C51.4721 14.8572 51.4238 14.6263 51.4238 14.3643C51.4238 14.0782 51.4721 13.8318 51.5686 13.625C51.6651 13.4148 51.7909 13.2407 51.946 13.1028C52.1011 12.9615 52.2786 12.8529 52.4785 12.7771C52.6784 12.7013 52.8818 12.6513 53.0886 12.6272L54.6448 12.4359C54.793 12.4187 54.9085 12.3618 54.9912 12.2653C55.0773 12.1653 55.1204 12.0068 55.1204 11.7896C55.1204 11.4553 55.0101 11.2158 54.7895 11.071C54.5724 10.9228 54.2588 10.8487 53.8486 10.8487C53.4281 10.8487 53.1145 10.9383 52.9076 11.1175C52.7008 11.2933 52.5837 11.5587 52.5561 11.9137H51.6668ZM55.0997 12.9736C55.0239 13.0287 54.9291 13.0753 54.8154 13.1132C54.7051 13.1476 54.5827 13.1769 54.4483 13.2011C54.3139 13.2252 54.1709 13.2476 54.0192 13.2683C53.8676 13.2855 53.7159 13.3045 53.5642 13.3251C53.3919 13.3493 53.2334 13.3837 53.0886 13.4285C52.9438 13.4733 52.818 13.5319 52.7112 13.6043C52.6043 13.6767 52.5216 13.7646 52.463 13.868C52.4044 13.9679 52.3751 14.0869 52.3751 14.2247C52.3751 14.3833 52.3993 14.5229 52.4475 14.6435C52.4992 14.7641 52.5681 14.8658 52.6543 14.9485C52.7439 15.0312 52.8508 15.0933 52.9749 15.1347C53.0989 15.176 53.2351 15.1967 53.3833 15.1967C53.4764 15.1967 53.5832 15.1864 53.7038 15.1657C53.8245 15.1415 53.9485 15.1071 54.0761 15.0623C54.2036 15.0175 54.3277 14.9606 54.4483 14.8917C54.5724 14.8193 54.6827 14.7331 54.7792 14.6332C54.8757 14.5332 54.9533 14.4195 55.0119 14.2919C55.0704 14.1644 55.0997 14.0214 55.0997 13.8628V12.9736Z" fill="white"/>
<path d="M57.571 10.2541H61.0091V11.0813H58.5223V15.7912H57.571V10.2541Z" fill="white"/>
<path d="M61.7898 10.2541H62.7411V11.0141H62.7617C62.8238 10.8866 62.9013 10.766 62.9944 10.6522C63.0909 10.5385 63.2046 10.4403 63.3356 10.3575C63.47 10.2714 63.6234 10.2042 63.7957 10.1559C63.9715 10.1077 64.1714 10.0835 64.3955 10.0835C64.6919 10.0835 64.9762 10.1404 65.2485 10.2541C65.5208 10.3679 65.7621 10.5385 65.9723 10.766C66.1826 10.9935 66.3497 11.2795 66.4738 11.6242C66.5979 11.9654 66.6599 12.3635 66.6599 12.8185C66.6599 13.3872 66.6014 13.8714 66.4842 14.2713C66.3704 14.6676 66.2067 14.9916 65.993 15.2432C65.7828 15.4948 65.5277 15.6775 65.2278 15.7912C64.928 15.905 64.5937 15.9619 64.2249 15.9619C64.0422 15.9619 63.8716 15.9377 63.713 15.8895C63.5545 15.8412 63.4114 15.7792 63.2839 15.7034C63.1598 15.6241 63.053 15.5379 62.9634 15.4449C62.8738 15.3483 62.8065 15.2553 62.7617 15.1657H62.7411V17.973H61.7898V10.2541ZM62.7204 13.0511C62.7204 13.351 62.7497 13.6284 62.8083 13.8835C62.8669 14.1351 62.9565 14.354 63.0771 14.5401C63.2012 14.7262 63.3546 14.8727 63.5372 14.9795C63.7234 15.083 63.9422 15.1347 64.1938 15.1347C64.4558 15.1347 64.6815 15.083 64.8711 14.9795C65.0641 14.8727 65.2227 14.7262 65.3468 14.5401C65.4708 14.354 65.5622 14.1351 65.6208 13.8835C65.6794 13.6284 65.7087 13.351 65.7087 13.0511C65.7087 12.7375 65.6794 12.4497 65.6208 12.1877C65.5622 11.9258 65.4708 11.7 65.3468 11.5105C65.2227 11.3209 65.0641 11.1744 64.8711 11.071C64.6815 10.9642 64.4558 10.9107 64.1938 10.9107C63.9422 10.9107 63.7234 10.9642 63.5372 11.071C63.3546 11.1744 63.2012 11.3209 63.0771 11.5105C62.9565 11.7 62.8669 11.9258 62.8083 12.1877C62.7497 12.4497 62.7204 12.7375 62.7204 13.0511Z" fill="white"/>
<path d="M67.1563 10.2541H68.2006L69.6741 14.7624H69.6948L71.1682 10.2541H72.2126L70.098 16.0136C69.9912 16.3031 69.8929 16.5547 69.8033 16.7684C69.7137 16.9821 69.6258 17.163 69.5397 17.3112C69.4535 17.4629 69.3656 17.5852 69.276 17.6783C69.1898 17.7714 69.0933 17.8438 68.9865 17.8955C68.8831 17.9506 68.7659 17.9868 68.6349 18.004C68.5074 18.0247 68.3592 18.035 68.1903 18.035C68.0524 18.035 67.9438 18.0281 67.8646 18.0144C67.7887 18.004 67.7215 17.9902 67.6629 17.973V17.1148C67.725 17.1355 67.806 17.1561 67.9059 17.1768C68.0059 17.1975 68.111 17.2078 68.2213 17.2078C68.3971 17.2078 68.5384 17.1648 68.6452 17.0786C68.7555 16.9959 68.84 16.877 68.8986 16.7219L69.2088 15.9412L67.1563 10.2541Z" fill="white"/>
<path d="M74.4615 12.591H74.9423C75.0699 12.591 75.2026 12.5755 75.3404 12.5445C75.4783 12.5134 75.6041 12.4652 75.7179 12.3997C75.8316 12.3308 75.9247 12.2429 75.997 12.136C76.0729 12.0292 76.1108 11.8999 76.1108 11.7483C76.1108 11.638 76.0866 11.5329 76.0384 11.4329C75.9936 11.3295 75.9247 11.2399 75.8316 11.1641C75.742 11.0848 75.6282 11.0227 75.4904 10.9779C75.3525 10.9331 75.1922 10.9107 75.0096 10.9107C74.913 10.9107 74.7993 10.9245 74.6683 10.9521C74.5374 10.9797 74.4081 11.0314 74.2806 11.1072C74.1565 11.1796 74.0445 11.2847 73.9445 11.4226C73.848 11.557 73.786 11.7328 73.7584 11.9499H72.8692C72.8933 11.7017 72.9433 11.4846 73.0191 11.2985C73.0949 11.1089 73.1897 10.9452 73.3034 10.8073C73.4172 10.6695 73.5447 10.554 73.686 10.4609C73.8308 10.3679 73.979 10.2938 74.1306 10.2386C74.2858 10.1835 74.4409 10.1438 74.596 10.1197C74.7511 10.0956 74.8993 10.0835 75.0406 10.0835C75.2887 10.0835 75.5335 10.1163 75.7747 10.1818C76.016 10.2438 76.2314 10.3403 76.421 10.4713C76.614 10.5988 76.7691 10.7608 76.8863 10.9573C77.0035 11.1537 77.0621 11.3829 77.0621 11.6449C77.0621 11.8138 77.0379 11.9637 76.9897 12.0947C76.9414 12.2222 76.8777 12.3342 76.7984 12.4307C76.7226 12.5272 76.6364 12.6099 76.5399 12.6789C76.4434 12.7444 76.3486 12.7995 76.2555 12.8443V12.8702C76.352 12.8874 76.4589 12.9236 76.5761 12.9787C76.6933 13.0304 76.8018 13.1063 76.9018 13.2062C77.0017 13.3027 77.0845 13.4285 77.15 13.5836C77.2189 13.7353 77.2534 13.9214 77.2534 14.142C77.2534 14.4522 77.1861 14.721 77.0517 14.9485C76.9207 15.176 76.7484 15.3656 76.5347 15.5172C76.321 15.6654 76.0798 15.7757 75.8109 15.8481C75.5421 15.9239 75.2715 15.9619 74.9992 15.9619C74.6477 15.9619 74.3288 15.917 74.0428 15.8274C73.7601 15.7378 73.5154 15.6103 73.3086 15.4449C73.1018 15.2794 72.9364 15.0812 72.8123 14.8503C72.6917 14.6194 72.6193 14.3643 72.5951 14.0851H73.5516C73.5757 14.2885 73.6343 14.4574 73.7274 14.5918C73.8204 14.7262 73.9325 14.8331 74.0634 14.9123C74.1944 14.9916 74.3392 15.0485 74.4977 15.083C74.6597 15.1174 74.8234 15.1347 74.9889 15.1347C75.4266 15.1347 75.754 15.0468 75.9712 14.871C76.1918 14.6952 76.3021 14.4591 76.3021 14.1627C76.3021 14.0352 76.2814 13.9214 76.24 13.8215C76.2021 13.7215 76.1366 13.6371 76.0436 13.5681C75.9505 13.4957 75.8264 13.4423 75.6713 13.4079C75.5197 13.3699 75.3301 13.351 75.1026 13.351C75.0578 13.351 75.0061 13.3527 74.9475 13.3562C74.8924 13.3562 74.8355 13.3579 74.7769 13.3613C74.7218 13.3648 74.6666 13.3699 74.6115 13.3768C74.5563 13.3803 74.5063 13.3837 74.4615 13.3872V12.591Z" fill="white"/>
<path d="M78.3236 10.2541H79.2748V14.4987H79.2955L82.015 10.2541H83.1058V15.7912H82.1494V11.5466H82.1287L79.4144 15.7912H78.3236V10.2541Z" fill="white"/>
<path d="M85.9804 11.0813H84.0726V10.2541H88.8394V11.0813H86.9317V15.7912H85.9804V11.0813Z" fill="white"/>
<path d="M94.5161 14.0231C94.4782 14.2644 94.3955 14.5005 94.2679 14.7314C94.1404 14.9623 93.9733 15.1691 93.7664 15.3518C93.5597 15.5345 93.3149 15.681 93.0323 15.7912C92.7531 15.905 92.4429 15.9619 92.1017 15.9619C91.7295 15.9619 91.3848 15.9015 91.0677 15.7809C90.754 15.6568 90.4818 15.4724 90.2508 15.2277C90.0233 14.9795 89.8441 14.6693 89.7131 14.2971C89.5822 13.9249 89.5167 13.4871 89.5167 12.9839C89.5167 12.6461 89.5529 12.3411 89.6253 12.0688C89.7011 11.7931 89.801 11.5484 89.9251 11.3347C90.0526 11.1175 90.1991 10.9314 90.3646 10.7763C90.53 10.6178 90.7041 10.4885 90.8867 10.3886C91.0729 10.2852 91.2624 10.2093 91.4554 10.1611C91.6485 10.1094 91.8346 10.0835 92.0138 10.0835C92.3929 10.0835 92.7393 10.1404 93.053 10.2541C93.3666 10.3679 93.6355 10.5419 93.8595 10.7763C94.087 11.0072 94.2628 11.2985 94.3869 11.65C94.5144 11.9982 94.5781 12.4083 94.5781 12.8805V13.3562H90.53C90.5335 13.625 90.5714 13.8697 90.6437 14.0903C90.7161 14.3074 90.8195 14.4936 90.9539 14.6487C91.0884 14.8038 91.2504 14.9244 91.4399 15.0106C91.6329 15.0933 91.8501 15.1347 92.0914 15.1347C92.3361 15.1347 92.5429 15.1002 92.7118 15.0312C92.8806 14.9623 93.022 14.8744 93.1357 14.7676C93.2494 14.6607 93.3408 14.5418 93.4097 14.4108C93.4821 14.2799 93.5424 14.1506 93.5907 14.0231H94.5161ZM93.6217 12.5962C93.6148 12.3273 93.5734 12.0878 93.4976 11.8775C93.4252 11.6673 93.3218 11.4915 93.1874 11.3502C93.0564 11.2054 92.8979 11.0969 92.7118 11.0245C92.5256 10.9486 92.3188 10.9107 92.0914 10.9107C91.8742 10.9107 91.6743 10.9538 91.4916 11.04C91.309 11.1227 91.1487 11.2399 91.0108 11.3915C90.873 11.5398 90.7627 11.7173 90.6799 11.9241C90.5972 12.1274 90.5472 12.3514 90.53 12.5962H93.6217Z" fill="white"/>
<path d="M98.6418 10.2541H100.999C101.675 10.2541 102.18 10.3799 102.514 10.6315C102.852 10.8832 103.021 11.2485 103.021 11.7276C103.021 11.9827 102.959 12.1981 102.835 12.3739C102.711 12.5496 102.547 12.7047 102.344 12.8392C102.637 12.9494 102.869 13.108 103.041 13.3148C103.214 13.5216 103.3 13.7887 103.3 14.1162C103.3 14.3747 103.257 14.6073 103.171 14.8141C103.085 15.0209 102.954 15.1967 102.778 15.3415C102.602 15.4862 102.378 15.5982 102.106 15.6775C101.837 15.7533 101.518 15.7912 101.149 15.7912H98.6418V10.2541ZM99.5931 15.0312H101.041C101.292 15.0312 101.501 15.0123 101.666 14.9744C101.835 14.933 101.97 14.8744 102.07 14.7986C102.169 14.7228 102.24 14.6314 102.282 14.5246C102.323 14.4177 102.344 14.2971 102.344 14.1627C102.344 14.0283 102.323 13.9076 102.282 13.8008C102.24 13.6905 102.169 13.5992 102.07 13.5268C101.97 13.4509 101.835 13.3941 101.666 13.3562C101.501 13.3148 101.292 13.2941 101.041 13.2941H99.5931V15.0312ZM99.5931 12.5962H101.03C101.351 12.5962 101.604 12.5324 101.79 12.4049C101.976 12.2773 102.07 12.0792 102.07 11.8103C102.07 11.6587 102.044 11.5329 101.992 11.4329C101.94 11.3295 101.871 11.2468 101.785 11.1847C101.699 11.1227 101.601 11.0796 101.49 11.0555C101.384 11.0279 101.273 11.0141 101.16 11.0141H99.5931V12.5962Z" fill="white"/>
<path d="M53.0231 28.8329L50.7941 22.3459L48.4252 28.8329H53.0231ZM49.7546 20.1669H52.0036L57.3311 34.8501H55.1521L53.6628 30.4522H47.8555L46.2662 34.8501H44.2271L49.7546 20.1669Z" fill="white"/>
<path d="M63.4183 33.6407C64.2579 33.6407 64.9543 33.2909 65.5074 32.5912C66.0671 31.8848 66.347 30.832 66.347 29.4326C66.347 28.5797 66.2237 27.8467 65.9771 27.2336C65.5107 26.0542 64.6577 25.4645 63.4183 25.4645C62.1722 25.4645 61.3193 26.0875 60.8595 27.3336C60.6129 28 60.4897 28.8462 60.4897 29.8724C60.4897 30.6987 60.6129 31.4017 60.8595 31.9815C61.3259 33.0876 62.1789 33.6407 63.4183 33.6407ZM58.7605 24.195H60.5097V25.6144C60.8695 25.1279 61.2626 24.7514 61.6891 24.4849C62.2955 24.0851 63.0085 23.8852 63.8281 23.8852C65.0409 23.8852 66.0704 24.3516 66.9167 25.2845C67.763 26.2108 68.1861 27.5368 68.1861 29.2627C68.1861 31.595 67.5764 33.2609 66.357 34.2604C65.584 34.8934 64.6844 35.21 63.6582 35.21C62.8519 35.21 62.1756 35.0334 61.6291 34.6802C61.3093 34.4803 60.9528 34.1371 60.5596 33.6507V39.1182H58.7605V24.195Z" fill="white"/>
<path d="M74.8131 33.6407C75.6527 33.6407 76.349 33.2909 76.9021 32.5912C77.4619 31.8848 77.7417 30.832 77.7417 29.4326C77.7417 28.5797 77.6185 27.8467 77.3719 27.2336C76.9055 26.0542 76.0525 25.4645 74.8131 25.4645C73.567 25.4645 72.714 26.0875 72.2543 27.3336C72.0077 28 71.8844 28.8462 71.8844 29.8724C71.8844 30.6987 72.0077 31.4017 72.2543 31.9815C72.7207 33.0876 73.5737 33.6407 74.8131 33.6407ZM70.1552 24.195H71.9044V25.6144C72.2643 25.1279 72.6574 24.7514 73.0839 24.4849C73.6903 24.0851 74.4033 23.8852 75.2229 23.8852C76.4357 23.8852 77.4652 24.3516 78.3115 25.2845C79.1577 26.2108 79.5809 27.5368 79.5809 29.2627C79.5809 31.595 78.9712 33.2609 77.7517 34.2604C76.9788 34.8934 76.0792 35.21 75.053 35.21C74.2467 35.21 73.5703 35.0334 73.0239 34.6802C72.7041 34.4803 72.3475 34.1371 71.9544 33.6507V39.1182H70.1552V24.195Z" fill="white"/>
<path d="M88.9266 30.1123C88.9732 30.9453 89.1698 31.6216 89.5163 32.1414C90.176 33.1143 91.3388 33.6007 93.0047 33.6007C93.751 33.6007 94.4307 33.4941 95.0438 33.2809C96.2299 32.8677 96.823 32.1281 96.823 31.0619C96.823 30.2622 96.5731 29.6925 96.0733 29.3527C95.5669 29.0195 94.7739 28.7296 93.6944 28.4831L91.7053 28.0333C90.4059 27.7401 89.4863 27.4169 88.9466 27.0637C88.0137 26.4507 87.5472 25.5344 87.5472 24.315C87.5472 22.9956 88.0037 21.9128 88.9166 21.0665C89.8295 20.2202 91.1222 19.7971 92.7948 19.7971C94.3341 19.7971 95.6402 20.1702 96.713 20.9165C97.7925 21.6562 98.3323 22.8423 98.3323 24.4749H96.4631C96.3632 23.6886 96.1499 23.0855 95.8234 22.6657C95.217 21.8994 94.1875 21.5163 92.7348 21.5163C91.562 21.5163 90.7191 21.7628 90.206 22.2559C89.6929 22.749 89.4364 23.3221 89.4364 23.9751C89.4364 24.6948 89.7362 25.2212 90.3359 25.5544C90.7291 25.7676 91.6187 26.0342 93.0047 26.354L95.0638 26.8238C96.0566 27.0504 96.823 27.3602 97.3627 27.7534C98.2956 28.4398 98.7621 29.436 98.7621 30.742C98.7621 32.3679 98.169 33.5307 96.9829 34.2304C95.8034 34.9301 94.4307 35.2799 92.8648 35.2799C91.039 35.2799 89.6096 34.8135 88.5768 33.8806C87.5439 32.9543 87.0375 31.6983 87.0575 30.1123H88.9266Z" fill="white"/>
<path d="M101.401 21.1564H103.22V24.1451H104.929V25.6144H103.22V32.6012C103.22 32.9743 103.347 33.2242 103.6 33.3508C103.74 33.4241 103.973 33.4608 104.3 33.4608C104.386 33.4608 104.479 33.4608 104.579 33.4608C104.679 33.4541 104.796 33.4441 104.929 33.4308V34.8501C104.723 34.9101 104.506 34.9534 104.28 34.9801C104.06 35.0067 103.82 35.0201 103.56 35.0201C102.72 35.0201 102.151 34.8068 101.851 34.3804C101.551 33.9472 101.401 33.3875 101.401 32.7011V25.6144H99.9515V24.1451H101.401V21.1564Z" fill="white"/>
<path d="M110.986 33.6907C112.179 33.6907 112.996 33.2409 113.435 32.3413C113.882 31.435 114.105 30.4288 114.105 29.3227C114.105 28.3231 113.945 27.5102 113.625 26.8838C113.119 25.8976 112.246 25.4045 111.006 25.4045C109.907 25.4045 109.107 25.8243 108.608 26.6639C108.108 27.5035 107.858 28.5164 107.858 29.7025C107.858 30.842 108.108 31.7915 108.608 32.5512C109.107 33.3108 109.9 33.6907 110.986 33.6907ZM111.056 23.8352C112.436 23.8352 113.602 24.295 114.555 25.2146C115.508 26.1341 115.984 27.4869 115.984 29.2727C115.984 30.9986 115.564 32.4246 114.725 33.5507C113.885 34.6769 112.582 35.24 110.817 35.24C109.344 35.24 108.174 34.7435 107.308 33.7506C106.442 32.7511 106.009 31.4117 106.009 29.7325C106.009 27.9333 106.465 26.5006 107.378 25.4345C108.291 24.3683 109.517 23.8352 111.056 23.8352Z" fill="white"/>
<path d="M118.183 24.1451H119.892V25.9942C120.032 25.6344 120.375 25.1979 120.922 24.6848C121.468 24.165 122.098 23.9052 122.811 23.9052C122.844 23.9052 122.901 23.9085 122.981 23.9152C123.061 23.9218 123.198 23.9352 123.391 23.9551V25.8543C123.284 25.8343 123.184 25.821 123.091 25.8143C123.004 25.8076 122.908 25.8043 122.801 25.8043C121.895 25.8043 121.198 26.0975 120.712 26.6839C120.226 27.2636 119.982 27.9333 119.982 28.693V34.8501H118.183V24.1451Z" fill="white"/>
<path d="M129.408 23.9052C130.168 23.9052 130.904 24.0851 131.617 24.4449C132.33 24.7981 132.873 25.2579 133.246 25.8243C133.606 26.364 133.846 26.9937 133.966 27.7134C134.073 28.2065 134.126 28.9928 134.126 30.0723H126.279C126.313 31.1585 126.569 32.0314 127.049 32.6911C127.529 33.3442 128.272 33.6707 129.278 33.6707C130.218 33.6707 130.967 33.3608 131.527 32.7411C131.847 32.3813 132.073 31.9648 132.207 31.4917H133.976C133.929 31.8848 133.773 32.3246 133.506 32.8111C133.246 33.2909 132.953 33.684 132.627 33.9905C132.08 34.5236 131.404 34.8835 130.597 35.07C130.164 35.1767 129.675 35.23 129.128 35.23C127.795 35.23 126.666 34.7469 125.74 33.7806C124.813 32.8077 124.35 31.4484 124.35 29.7025C124.35 27.9833 124.817 26.5873 125.75 25.5144C126.683 24.4416 127.902 23.9052 129.408 23.9052ZM132.277 28.643C132.203 27.8633 132.033 27.2403 131.767 26.7738C131.274 25.9076 130.451 25.4744 129.298 25.4744C128.472 25.4744 127.779 25.7743 127.219 26.374C126.659 26.9671 126.363 27.7234 126.329 28.643H132.277Z" fill="white"/>
</svg>
