<svg width="152" height="48" viewBox="0 0 152 48" fill="none" xmlns="http://www.w3.org/2000/svg">
<path d="M1 7C1 3.68629 3.68629 1 7 1L145 1C148.314 1 151 3.68629 151 7V41C151 44.3137 148.314 47 145 47H7.00002C3.68631 47 1.00001 44.3137 1.00001 41L1 7Z" fill="#001424" stroke="#445361" stroke-width="1.5"/>
<path d="M44.1913 18.5698V16.052H44.8789C44.9513 15.8865 45.0185 15.7193 45.0805 15.5505C45.1426 15.3781 45.1994 15.1851 45.2511 14.9714C45.3063 14.7543 45.3563 14.5061 45.4011 14.2269C45.4493 13.9478 45.4941 13.6169 45.5355 13.2343C45.5837 12.831 45.6217 12.4347 45.6492 12.0452C45.6768 11.6523 45.6975 11.2852 45.7113 10.944C45.7285 10.6027 45.7388 10.2943 45.7423 10.0185C45.7492 9.74279 45.7544 9.51703 45.7578 9.34125H50.5349V16.052H51.3931V18.5698H50.4419V16.9412H45.1426V18.5698H44.1913ZM46.7091 10.2305C46.7091 10.7234 46.6884 11.2145 46.6471 11.704C46.6091 12.1934 46.5626 12.6863 46.5075 13.1826C46.4695 13.5755 46.4299 13.9098 46.3885 14.1856C46.3506 14.4579 46.3093 14.7009 46.2645 14.9145C46.2231 15.1248 46.1749 15.3195 46.1197 15.4988C46.068 15.6745 46.0077 15.8589 45.9388 16.052H49.4906V10.2305H46.7091Z" fill="white"/>
<path d="M55.9893 14.1649C55.9893 13.8581 55.9548 13.5772 55.8859 13.3222C55.817 13.0637 55.7136 12.8414 55.5757 12.6552C55.4378 12.4691 55.2672 12.3244 55.0639 12.221C54.864 12.1141 54.6313 12.0607 54.3659 12.0607C54.1005 12.0607 53.8679 12.1141 53.668 12.221C53.4681 12.3244 53.2992 12.4691 53.1613 12.6552C53.0234 12.8414 52.92 13.0637 52.8511 13.3222C52.7822 13.5772 52.7477 13.8581 52.7477 14.1649C52.7477 14.4751 52.7822 14.7612 52.8511 15.0231C52.92 15.2816 53.0234 15.5039 53.1613 15.6901C53.2992 15.8762 53.4681 16.0227 53.668 16.1295C53.8679 16.2329 54.1005 16.2846 54.3659 16.2846C54.6313 16.2846 54.864 16.2329 55.0639 16.1295C55.2672 16.0227 55.4378 15.8762 55.5757 15.6901C55.7136 15.5039 55.817 15.2816 55.8859 15.0231C55.9548 14.7612 55.9893 14.4751 55.9893 14.1649ZM56.9406 14.1649C56.9406 14.6199 56.882 15.03 56.7648 15.3954C56.6476 15.7573 56.4787 16.0657 56.2582 16.3208C56.0376 16.5759 55.767 16.7723 55.4465 16.9102C55.1294 17.0446 54.7692 17.1118 54.3659 17.1118C53.9627 17.1118 53.6025 17.0446 53.2854 16.9102C52.9683 16.7723 52.6994 16.5759 52.4789 16.3208C52.2583 16.0657 52.0894 15.7573 51.9722 15.3954C51.855 15.03 51.7964 14.6199 51.7964 14.1649C51.7964 13.7168 51.855 13.3118 51.9722 12.9499C52.0894 12.588 52.2583 12.2796 52.4789 12.0245C52.6994 11.7694 52.9683 11.5747 53.2854 11.4403C53.6025 11.3024 53.9627 11.2335 54.3659 11.2335C54.7692 11.2335 55.1294 11.3024 55.4465 11.4403C55.767 11.5747 56.0376 11.7694 56.2582 12.0245C56.4787 12.2796 56.6476 12.588 56.7648 12.9499C56.882 13.3118 56.9406 13.7168 56.9406 14.1649Z" fill="white"/>
<path d="M62.3691 14.9921C62.3553 15.1265 62.3278 15.273 62.2864 15.4316C62.2485 15.5901 62.1916 15.7486 62.1158 15.9072C62.04 16.0623 61.9417 16.2122 61.8211 16.357C61.7039 16.5017 61.5592 16.631 61.3868 16.7447C61.2179 16.855 61.018 16.9429 60.7871 17.0084C60.5562 17.0773 60.2925 17.1118 59.9961 17.1118C59.8341 17.1118 59.6635 17.0911 59.4843 17.0498C59.305 17.0119 59.1292 16.9464 58.9569 16.8533C58.788 16.7603 58.626 16.6413 58.4709 16.4966C58.3193 16.3484 58.1849 16.1657 58.0677 15.9486C57.9539 15.7314 57.8626 15.4798 57.7937 15.1937C57.7247 14.9042 57.6903 14.5733 57.6903 14.2011C57.6903 13.7427 57.7557 13.3308 57.8867 12.9654C58.0177 12.5966 58.1917 12.2847 58.4089 12.0297C58.6295 11.7746 58.8845 11.5782 59.1741 11.4403C59.467 11.3024 59.7738 11.2335 60.0943 11.2335C60.3838 11.2335 60.6389 11.2645 60.8595 11.3265C61.0835 11.3886 61.2783 11.4713 61.4437 11.5747C61.6091 11.6781 61.7487 11.7987 61.8625 11.9366C61.9762 12.071 62.0675 12.2141 62.1365 12.3657C62.2089 12.5139 62.2623 12.6656 62.2968 12.8207C62.3347 12.9758 62.3588 13.124 62.3691 13.2653H61.4799C61.4316 12.8896 61.3007 12.5949 61.087 12.3812C60.8767 12.1675 60.5803 12.0607 60.1977 12.0607C59.9358 12.0607 59.7066 12.1141 59.5101 12.221C59.3171 12.3278 59.1551 12.4777 59.0241 12.6708C58.8966 12.8603 58.8001 13.0912 58.7346 13.3635C58.6726 13.6324 58.6415 13.9288 58.6415 14.2528C58.6415 14.6181 58.676 14.9335 58.7449 15.1989C58.8139 15.4608 58.9121 15.678 59.0396 15.8503C59.1672 16.0192 59.3223 16.145 59.5049 16.2277C59.6911 16.307 59.9013 16.3466 60.1357 16.3466C60.3011 16.3466 60.4579 16.3174 60.6062 16.2588C60.7544 16.1967 60.8871 16.1088 61.0042 15.9951C61.1214 15.8779 61.2214 15.7349 61.3041 15.566C61.3868 15.3971 61.4454 15.2058 61.4799 14.9921H62.3691Z" fill="white"/>
<path d="M64.7835 12.2313H62.8758V11.4041H67.6426V12.2313H65.7348V16.9412H64.7835V12.2313Z" fill="white"/>
<path d="M68.0252 11.4041H69.0695L70.543 15.9124H70.5636L72.0371 11.4041H73.0814L70.9669 17.1635C70.8601 17.453 70.7618 17.7046 70.6722 17.9183C70.5826 18.132 70.4947 18.313 70.4085 18.4612C70.3224 18.6128 70.2345 18.7352 70.1449 18.8283C70.0587 18.9213 69.9622 18.9937 69.8553 19.0454C69.7519 19.1006 69.6348 19.1367 69.5038 19.154C69.3763 19.1747 69.2281 19.185 69.0592 19.185C68.9213 19.185 68.8127 19.1781 68.7334 19.1643C68.6576 19.154 68.5904 19.1402 68.5318 19.123V18.2647C68.5939 18.2854 68.6749 18.3061 68.7748 18.3268C68.8748 18.3475 68.9799 18.3578 69.0902 18.3578C69.266 18.3578 69.4073 18.3147 69.5141 18.2285C69.6244 18.1458 69.7089 18.0269 69.7675 17.8718L70.0777 17.0911L68.0252 11.4041Z" fill="white"/>
<path d="M77.4346 12.2313H74.8496V16.9412H73.8983V11.4041H78.3911V16.9412H77.4346V12.2313Z" fill="white"/>
<path d="M79.7922 11.4041H80.7434V13.6375H83.3285V11.4041H84.2849V16.9412H83.3285V14.4648H80.7434V16.9412H79.7922V11.4041Z" fill="white"/>
<path d="M89.5532 14.1649C89.5532 13.8581 89.5187 13.5772 89.4498 13.3222C89.3809 13.0637 89.2775 12.8414 89.1396 12.6552C89.0017 12.4691 88.8311 12.3244 88.6278 12.221C88.4278 12.1141 88.1952 12.0607 87.9298 12.0607C87.6644 12.0607 87.4318 12.1141 87.2318 12.221C87.0319 12.3244 86.863 12.4691 86.7252 12.6552C86.5873 12.8414 86.4839 13.0637 86.415 13.3222C86.346 13.5772 86.3116 13.8581 86.3116 14.1649C86.3116 14.4751 86.346 14.7612 86.415 15.0231C86.4839 15.2816 86.5873 15.5039 86.7252 15.6901C86.863 15.8762 87.0319 16.0227 87.2318 16.1295C87.4318 16.2329 87.6644 16.2846 87.9298 16.2846C88.1952 16.2846 88.4278 16.2329 88.6278 16.1295C88.8311 16.0227 89.0017 15.8762 89.1396 15.6901C89.2775 15.5039 89.3809 15.2816 89.4498 15.0231C89.5187 14.7612 89.5532 14.4751 89.5532 14.1649ZM90.5045 14.1649C90.5045 14.6199 90.4459 15.03 90.3287 15.3954C90.2115 15.7573 90.0426 16.0657 89.822 16.3208C89.6014 16.5759 89.3309 16.7723 89.0103 16.9102C88.6932 17.0446 88.3331 17.1118 87.9298 17.1118C87.5265 17.1118 87.1664 17.0446 86.8493 16.9102C86.5322 16.7723 86.2633 16.5759 86.0427 16.3208C85.8221 16.0657 85.6533 15.7573 85.5361 15.3954C85.4189 15.03 85.3603 14.6199 85.3603 14.1649C85.3603 13.7168 85.4189 13.3118 85.5361 12.9499C85.6533 12.588 85.8221 12.2796 86.0427 12.0245C86.2633 11.7694 86.5322 11.5747 86.8493 11.4403C87.1664 11.3024 87.5265 11.2335 87.9298 11.2335C88.3331 11.2335 88.6932 11.3024 89.0103 11.4403C89.3309 11.5747 89.6014 11.7694 89.822 12.0245C90.0426 12.2796 90.2115 12.588 90.3287 12.9499C90.4459 13.3118 90.5045 13.7168 90.5045 14.1649Z" fill="white"/>
<path d="M94.5268 11.4041H96.8843C97.5599 11.4041 98.0648 11.5299 98.3991 11.7815C98.7369 12.0331 98.9058 12.3985 98.9058 12.8776C98.9058 13.1326 98.8437 13.348 98.7197 13.5238C98.5956 13.6996 98.4319 13.8547 98.2285 13.9891C98.5215 14.0994 98.7541 14.258 98.9265 14.4648C99.0988 14.6716 99.185 14.9387 99.185 15.2661C99.185 15.5246 99.1419 15.7573 99.0557 15.9641C98.9695 16.1709 98.8386 16.3466 98.6628 16.4914C98.487 16.6362 98.263 16.7482 97.9907 16.8275C97.7218 16.9033 97.403 16.9412 97.0342 16.9412H94.5268V11.4041ZM95.4781 16.1812H96.9257C97.1773 16.1812 97.3858 16.1622 97.5512 16.1243C97.7201 16.083 97.8545 16.0244 97.9545 15.9486C98.0545 15.8727 98.1251 15.7814 98.1665 15.6745C98.2078 15.5677 98.2285 15.4471 98.2285 15.3126C98.2285 15.1782 98.2078 15.0576 98.1665 14.9507C98.1251 14.8404 98.0545 14.7491 97.9545 14.6767C97.8545 14.6009 97.7201 14.544 97.5512 14.5061C97.3858 14.4648 97.1773 14.4441 96.9257 14.4441H95.4781V16.1812ZM95.4781 13.7461H96.9153C97.2359 13.7461 97.4892 13.6824 97.6753 13.5548C97.8614 13.4273 97.9545 13.2291 97.9545 12.9603C97.9545 12.8086 97.9286 12.6828 97.8769 12.5829C97.8252 12.4795 97.7563 12.3967 97.6701 12.3347C97.584 12.2727 97.4857 12.2296 97.3755 12.2054C97.2686 12.1779 97.1583 12.1641 97.0446 12.1641H95.4781V13.7461Z" fill="white"/>
<path fill-rule="evenodd" clip-rule="evenodd" d="M50.3311 28.3217H56.6864C56.6864 28.3202 56.8011 28.7889 56.8025 29.5975C56.8025 33.4337 54.0874 36.0283 50.3773 36.0283C46.159 36.0283 43.2942 32.5279 43.2942 28.9374C43.2942 25.2742 46.3396 21.8823 50.2765 21.8823C53.3681 21.8823 55.0629 23.8083 55.0629 23.8083L53.7418 25.2041C53.7418 25.2041 52.4822 23.8126 50.3437 23.8126C47.5726 23.8126 45.3613 26.0571 45.3613 28.9717C45.3613 31.9635 47.6803 34.0981 50.3381 34.0981C52.415 34.0981 54.6151 32.9465 54.839 30.2476H50.3311V28.3217ZM64.6136 31.4777C64.6136 29.7718 63.3974 28.7131 62.1154 28.7131C60.6753 28.7131 59.5669 29.8889 59.5669 31.4648C59.5669 33.075 60.6879 34.2366 62.1098 34.2366C63.403 34.2366 64.6136 33.1479 64.6136 31.4777ZM57.6131 31.4363C57.6131 29.0088 59.4815 26.9272 62.0902 26.9272C64.2343 26.9272 66.559 28.4773 66.559 31.4891C66.559 34.1166 64.5604 36.0197 62.121 36.0197C59.4255 36.0197 57.6131 33.8994 57.6131 31.4363ZM71.9578 28.7131C73.2398 28.7131 74.456 29.7718 74.456 31.4777C74.456 33.1479 73.2454 34.2366 71.9522 34.2366C70.5303 34.2366 69.4093 33.075 69.4093 31.4648C69.4093 29.8889 70.5177 28.7131 71.9578 28.7131ZM71.9326 26.9272C69.3239 26.9272 67.4555 29.0088 67.4555 31.4363C67.4555 33.8994 69.2679 36.0197 71.9634 36.0197C74.4028 36.0197 76.4014 34.1166 76.4014 31.4891C76.4014 28.4773 74.0767 26.9272 71.9326 26.9272ZM84.1276 31.485C84.1276 29.7376 82.9226 28.7146 81.7484 28.7146C80.4916 28.7146 79.2586 29.7562 79.26 31.5021C79.26 33.1823 80.4468 34.2396 81.7232 34.2396C82.9254 34.2396 84.1276 33.2609 84.1276 31.485ZM77.2992 31.475C77.2992 29.0718 79.1816 26.9316 81.5748 26.9316C82.6175 26.9316 83.4026 27.3445 83.9764 27.976V27.2059H85.8434V35.374C85.8434 38.5844 84.0296 40.1146 81.649 40.1146C79.4727 40.1146 78.2509 38.7472 77.6435 37.4371L79.3552 36.707C79.5917 37.2928 80.2747 38.3258 81.635 38.3258C83.043 38.3258 83.9764 37.3871 83.9764 35.8183V34.9225C83.4782 35.5126 82.8036 36.0269 81.5343 36.0269C79.4811 36.0269 77.2992 34.211 77.2992 31.475ZM94.6151 28.6688C95.4282 28.6688 96.0146 29.1103 96.2637 29.6404L92.275 31.342C92.1043 30.0247 93.3261 28.6688 94.6151 28.6688ZM94.5381 26.9215C92.2806 26.9215 90.3843 28.756 90.3843 31.462C90.3843 34.3252 92.4976 36.024 94.755 36.024C96.6388 36.024 97.7962 34.971 98.4862 34.028L96.9467 32.9822C96.5464 33.6151 95.8789 34.2338 94.7648 34.2338C93.5122 34.2338 92.937 33.5337 92.5801 32.8565L98.552 30.3262L98.2413 29.5846C97.6647 28.133 96.3183 26.9215 94.5381 26.9215ZM87.3401 22.3524H89.3023V35.754H87.3401V22.3524ZM115.603 22.3524H113.641V35.754H115.603V22.3524ZM105.2 22.3524H107.983C110.283 22.3524 112.165 24.274 112.165 26.6214C112.165 28.9689 110.283 30.8905 107.983 30.8905H105.2V35.754H103.238V30.8905V22.3524H105.2ZM105.2 28.8889H107.983C109.2 28.8889 110.203 27.8644 110.205 26.6214C110.205 25.3799 109.201 24.3555 107.983 24.3555H105.2V28.8889ZM133.622 26.9215L131.052 32.8922L128.481 26.9215H126.339L129.98 35.381L127.943 40.1159H130.085L135.765 26.9215H133.622ZM125.592 35.754H123.63V34.671C123.178 35.2196 122.627 35.6454 121.926 35.8397C120.681 36.1855 119.166 36.0483 118.243 35.0353C117.651 34.3852 117.463 33.318 117.573 32.4522C117.779 30.8505 119.071 29.8718 120.579 29.7161C121.546 29.6161 122.604 29.809 123.584 30.0733C123.37 27.8873 120.11 27.4187 118.968 29.4575L117.39 28.376C119.726 24.7927 125.899 25.9628 125.592 30.9334V35.754ZM121.46 34.0952C122.533 33.7966 123.38 32.9951 123.63 31.8807C123.082 31.6978 122.576 31.552 121.998 31.482C118.627 30.9634 119.191 34.7267 121.46 34.0952Z" fill="white"/>
<path d="M16.2354 32.8682V14.5911C16.2354 13.9533 16.6051 13.402 17.1417 13.1404L27.7141 23.7266L17.1375 34.3169C16.6032 34.0544 16.2354 33.5044 16.2354 32.8682ZM31.0683 27.0849L19.508 33.7679L28.6253 24.6388L31.0683 27.0849ZM34.6616 22.4483C35.0461 22.743 35.2942 23.2074 35.2942 23.7297C35.2942 24.2441 35.0537 24.7022 34.679 24.9975L32.2235 26.4171L29.5364 23.7266L32.2217 21.0378L34.6616 22.4483ZM19.5148 13.692L31.0664 20.3699L28.6253 22.8142L19.5148 13.692Z" fill="white"/>
</svg>
