<svg viewBox="0 0 438 154" preserveAspectRatio="xMinYMax" fill="none" xmlns="http://www.w3.org/2000/svg">
<!-- KION LOGO Created by MTStv.com -->
<path fill-rule="evenodd" clip-rule="evenodd" d="M305.261 0.00676846C314.558 0.00676846 322.101 7.57391 322.101 16.9076V83.5093C322.101 92.843 314.558 100.41 305.255 100.41H174.716C165.412 100.41 157.869 92.843 157.869 83.5093V16.9009C157.869 7.57391 165.412 0 174.716 0L305.261 0.00676846ZM292.713 75.1773C292.423 74.6765 292.031 72.8761 291.606 70.4394C289.286 57.092 289.286 43.4265 291.606 30.0791C292.031 27.6492 292.416 26.1398 292.713 25.3208L291.944 24.556C290.932 24.8267 287.909 25.3208 282.903 25.8488C254.372 28.8404 225.598 28.8472 197.074 25.842C192.115 25.3141 188.904 24.7793 188.128 24.556L187.365 25.3276C187.655 25.8285 188.047 27.6356 188.472 30.0655C190.799 43.4197 190.799 57.0785 188.472 70.4259C188.047 72.8625 187.655 74.6832 187.365 75.1909L188.134 75.9557C189.241 75.6647 192.169 75.1841 197.175 74.6629C225.706 71.6645 254.473 71.6645 283.005 74.6697C287.963 75.1909 291.944 75.9557 291.944 75.9557L292.713 75.1773Z" fill="#EEEEEE"/>
<path d="M406.386 55.7855V0.00657722H438V100.41H406.386L368.625 46.0118V100.41H337.004V0.00657722H368.625L406.386 55.7855Z" fill="#EEEEEE"/>
<path d="M142.373 0.00657722H110.752V100.41H142.373V0.00657722Z" fill="#EEEEEE"/>
<path d="M43.1375 36.5496L67.5667 0.00662817H101.347L68.8351 47.1354L101.347 100.41H67.5667L45.3773 63.0955H31.4929V100.403H0V0.00662817H31.4929V36.5496H43.1375Z" fill="#EEEEEE"/>
<path d="M393.946 128.635H386.514V121.389H409.341V128.635H401.91V148.243H393.946V128.635Z" fill="#EEEEEE"/>
<path d="M409.868 134.816C409.868 142.847 415.598 148.243 426.323 148.243H438V140.99H426.323C421.362 140.99 418.096 139.194 418.096 134.816C418.096 130.438 421.362 128.642 426.323 128.642H438V121.389H426.323C415.592 121.389 409.868 126.785 409.868 134.816Z" fill="#EEEEEE"/>
<path d="M361.838 121.389L366.084 137.411L370.329 121.389H384.395V148.236H376.438V126.382L370.646 148.236H361.521L355.73 126.395V148.236H347.772V121.389H361.838Z" fill="#EEEEEE"/>
<path d="M329.198 119.778C326.977 119.778 324.358 121.929 322.185 125.555C319.93 129.305 318.581 133.956 318.581 137.985C318.581 143.892 321.861 149.848 329.198 149.848C336.528 149.848 339.815 143.892 339.815 137.985C339.815 133.949 338.471 129.305 336.217 125.555C334.037 121.929 331.411 119.778 329.198 119.778Z" fill="#EEEEEE"/>
<path d="M167.809 128.069C162.038 128.069 159.163 131.552 159.163 138.285C159.163 145.135 162.038 148.557 167.802 148.564C172.527 148.564 175.315 146.693 175.969 142.144H172.217C171.737 144.794 170.34 145.654 167.809 145.654C164.394 145.654 162.916 143.462 162.916 139.405V137.186C162.916 133.075 164.509 130.971 167.809 130.971C170.482 130.971 171.818 132.064 172.19 134.543H175.942C175.261 129.967 172.615 128.069 167.809 128.069Z" fill="#EEEEEE"/>
<path d="M186.418 136.701C183.799 136.701 182.78 137.65 182.78 139.952V148.243H179.31V133.737H182.638V136.298C183.293 134.659 184.602 133.737 186.62 133.737H188.186V136.701H186.418Z" fill="#EEEEEE"/>
<path fill-rule="evenodd" clip-rule="evenodd" d="M203.541 143.551H200.072C199.843 145.422 198.533 145.969 196.92 145.962C194.726 145.962 193.532 144.555 193.532 142.021V140.928H203.487V140.177C203.487 135.547 201.179 133.416 196.913 133.416C192.222 133.416 190.002 136.121 190.002 141.017C190.002 145.852 192.162 148.557 196.913 148.557C200.666 148.557 203.089 147.034 203.541 143.551ZM199.87 138.688H193.586C193.815 136.872 194.834 136.011 196.88 136.011C198.817 136.011 199.701 136.906 199.87 138.688Z" fill="#EEEEEE"/>
<path fill-rule="evenodd" clip-rule="evenodd" d="M211.823 139.692L215.549 139.344V138.682C215.549 136.694 214.611 136.004 212.93 136.004C211.283 136.004 210.311 136.667 210.142 138.224H206.612C206.808 135.117 208.948 133.416 212.896 133.416C216.824 133.416 219.038 135.028 219.038 138.743V148.243H215.711V146.399C214.685 147.84 213.126 148.557 211.02 148.557C207.719 148.557 206.099 146.74 206.099 144.295C206.106 141.331 207.922 140.068 211.823 139.692ZM215.549 142.772V141.509L212.133 141.857C210.453 142.028 209.629 142.492 209.629 143.783V144.384C209.629 145.504 210.514 146.085 212.073 146.085C214.125 146.085 215.549 144.958 215.549 142.772Z" fill="#EEEEEE"/>
<path d="M223.23 133.737H221.407V136.523H223.23V144.268C223.23 147.061 224.168 148.243 226.982 148.243H230.222V145.45H228.204C227.097 145.45 226.699 145.019 226.699 143.838V136.53H230.229V133.737H226.699V129.216H223.23V133.737Z" fill="#EEEEEE"/>
<path fill-rule="evenodd" clip-rule="evenodd" d="M242.317 143.551H245.787C245.334 147.034 242.911 148.557 239.159 148.557C234.407 148.557 232.247 145.852 232.247 141.017C232.247 136.121 234.468 133.416 239.159 133.416C243.424 133.416 245.733 135.547 245.733 140.177V140.928H235.777V142.021C235.777 144.555 236.972 145.962 239.165 145.962C240.785 145.969 242.088 145.422 242.317 143.551ZM235.831 138.688H242.115C241.946 136.906 241.062 136.011 239.132 136.011C237.087 136.011 236.061 136.872 235.831 138.688Z" fill="#EEEEEE"/>
<path fill-rule="evenodd" clip-rule="evenodd" d="M259.124 146.293C258.185 147.782 256.675 148.557 254.547 148.557C250.363 148.557 248.318 145.736 248.318 141.017C248.318 136.237 250.37 133.416 254.547 133.416C256.566 133.416 258.017 134.167 258.982 135.52V127.229H262.451V148.243H259.124V146.293ZM258.989 139.87V142.055C258.989 144.439 257.855 145.941 255.459 145.941C253.069 145.941 251.929 144.562 251.929 142.055V139.87C251.929 137.391 253.069 136.039 255.459 136.039C257.848 136.039 258.989 137.391 258.989 139.87Z" fill="#EEEEEE"/>
<path fill-rule="evenodd" clip-rule="evenodd" d="M273.669 127.229H277.138V135.492C278.076 134.14 279.501 133.423 281.519 133.423C285.757 133.423 287.836 136.243 287.836 141.024C287.836 145.743 285.73 148.564 281.519 148.564C279.413 148.564 277.908 147.785 276.997 146.29V148.25H273.669V127.229ZM284.198 142.055V139.87C284.198 137.391 283.058 136.039 280.702 136.039C278.34 136.039 277.206 137.336 277.145 139.692V142.055C277.145 144.446 278.313 145.941 280.675 145.941C283.058 145.941 284.198 144.439 284.198 142.055Z" fill="#EEEEEE"/>
<path d="M294.842 149.711C294.41 150.947 293.904 151.207 292.365 151.207H291.123V154H293.141C295.868 154 296.84 153.276 297.947 150.141L303.832 133.737H300.532L296.921 143.899L293.195 133.737H289.523L295.126 148.851L294.842 149.711Z" fill="#EEEEEE"/>
</svg>
